<svg xmlns="http://www.w3.org/2000/svg" viewBox="0 0 333334 199007" shape-rendering="geometricPrecision" text-rendering="geometricPrecision" image-rendering="optimizeQuality" fill-rule="evenodd" clip-rule="evenodd"><path fill="#2271ce" d="M187557 124610h-41777V49531h41777z"/><path d="M31367 0h270601c8631 0 16474 3528 22156 9210 5683 5683 9211 13526 9211 22156v136275c0 8629-3529 16472-9211 22155-5683 5682-13526 9211-22155 9211H31368c-8629 0-16473-3528-22156-9211C3530 184114 2 176272 2 167641V31366c0-8631 3528-16474 9210-22156S22738 0 31369 0zm270601 10811H31367c-5647 0-10785 2315-14513 6043s-6043 8866-6043 14513v136275c0 5646 2315 10784 6043 14512 3729 3729 8867 6044 14513 6044h270601c5645 0 10783-2315 14512-6044 3728-3729 6044-8867 6044-14511V31368c0-5645-2315-10784-6043-14513-3728-3728-8867-6043-14513-6043z" fill="gray" fill-rule="nonzero"/><path d="M242437 116747v-1852h-483l-559 1272-556-1272h-486v1852h343v-1397l522 1206h355l522-1208v1400h340zm1481-29675c0 26371-21374 47748-47743 47748-11138 0-21386-3815-29507-10209 11105-8743 18235-22309 18235-37539s-7131-28796-18235-37539c8120-6393 18369-10209 29507-10209 26368 0 47743 21377 47743 47748zm-4543 29675v-1536h619v-313h-1578v313h619v1536h340z" fill="#0099df"/><path d="M148430 87072c0-15230 7131-28796 18235-37539-8120-6393-18369-10209-29507-10209-26368 0-47743 21377-47743 47748s21374 47748 47743 47748c11138 0 21386-3815 29507-10209-11105-8743-18235-22309-18235-37539z" fill="#005eb6"/><path d="M203613 158855c137 0 264-24 380-76 118-52 222-122 309-209 89-87 158-191 210-313 48-118 76-246 76-383 0-136-28-264-76-382-52-119-122-224-210-313-87-88-191-158-309-207-115-52-243-76-380-76s-267 24-385 76c-122 48-228 119-316 207s-158 194-206 313c-52 118-76 246-76 382 0 137 24 265 76 383 48 121 118 225 206 313s194 158 316 209c119 52 249 76 385 76m-4537-11717c-1326-874-3157-1327-5169-1327-3212 0-5279 1539-5279 4059 0 2067 1539 3339 4374 3740l1302 185c1509 212 2226 610 2226 1323 0 983-1008 1539-2890 1539-1909 0-3287-610-4217-1327l-1299 2149c1512 1114 3421 1646 5489 1646 3661 0 5783-1724 5783-4138 0-2228-1670-3394-4429-3795l-1299-185c-1193-157-2150-398-2150-1244 0-929 902-1485 2413-1485 1618 0 3185 610 3952 1087l1193-2228zm4322 10366v313h288c64 0 118-15 155-39 40-24 61-67 61-118s-21-91-61-115c-37-28-91-39-155-39h-288zm291-219c149 0 265 33 346 100 82 67 121 158 121 273 0 97-31 176-97 240-64 61-158 100-276 115l383 440h-297l-355-437h-116v437h-249v-1169h540zm-76-671c179 0 343 33 498 100 158 64 292 155 410 270 115 113 206 246 273 400 67 152 100 316 100 489s-33 337-100 489c-67 151-158 285-273 397-119 115-252 207-410 273-155 67-319 100-498 100-182 0-349-33-507-100-157-67-295-158-409-273-116-112-207-246-274-397-67-152-100-316-100-489s33-337 100-489c67-155 158-288 274-400 115-115 252-206 409-270 158-67 325-100 507-100zm-69671-4147c0 3846 2678 6657 6763 6657 1910 0 3181-425 4560-1512l-1327-2228c-1032 743-2119 1141-3315 1141-2201-28-3816-1618-3816-4059s1615-4031 3816-4059c1196 0 2283 398 3315 1142l1327-2228c-1378-1087-2650-1512-4560-1512-4086 0-6763 2811-6763 6657zm26588-6656c-1591 0-2626 743-3342 1858v-1539h-2729v12677h2756v-7109c0-2094 902-3260 2705-3260 559 0 1141 79 1724 319l847-2599c-607-239-1406-346-1961-346zm10243 0c-1591 0-2626 743-3342 1858v-1539h-2729v12677h2756v-7109c0-2094 902-3260 2705-3260 558 0 1141 79 1724 319l847-2599c-607-239-1406-346-1961-346zm-19324 12990h-2774v-12659h2774v12659zm-1402-18985c273 0 528 48 768 152 238 100 443 240 619 416 174 176 315 382 416 619 104 240 151 495 151 768s-49 528-151 765c-100 240-241 443-416 617-175 170-383 306-619 401-241 97-495 145-768 145s-528-48-765-145c-241-94-443-231-617-401-170-173-304-376-400-617-97-237-146-492-146-765s49-528 146-768c97-237 230-443 400-619 172-176 377-316 617-416 238-103 492-152 765-152zm36369 13622c0 1005-167 1867-495 2589-331 722-765 1311-1306 1770-540 458-1156 796-1852 1011-698 215-1411 325-2140 325-732 0-1445-109-2140-325-698-215-1318-553-1861-1011s-977-1047-1305-1770c-325-722-489-1585-489-2589v-7295h2741v7043c0 607 79 1126 234 1554 158 425 373 771 646 1035s598 458 972 577c373 119 774 179 1202 179 425 0 826-61 1199-179 373-119 698-313 971-577 276-264 489-610 646-1035 158-428 234-947 234-1554v-7043h2741v7295z" fill="#231f20"/></svg>